<svg xmlns="http://www.w3.org/2000/svg" version="1.1" xmlns:xlink="http://www.w3.org/1999/xlink" xmlns:svgjs="http://svgjs.com/svgjs" width="512" height="512" x="0" y="0" viewBox="0 0 510.194 510.194" style="enable-background:new 0 0 512 512" xml:space="preserve" class=""><g><g><g><path d="m393.491 341.692 44.255-37.768c9.103-7.768 10.228-21.497 2.514-30.663-7.714-9.166-21.347-10.3-30.45-2.531l-91.986 78.502-54.444 39.004 48.731 15.982z" fill="#ffe0d1" data-original="#ffe0d1"></path><path d="m334.072 359.133 91.986-78.502c4.586-3.914 10.33-5.589 15.879-5.095-.506-.79-1.057-1.538-1.677-2.274-7.714-9.166-21.347-10.3-30.449-2.531l-91.986 78.502-54.444 39.004 20.625 6.765z" fill="#ffd1c2" data-original="#ffd1c2"></path><path d="m319.408 348.792 68.39-57.959c7.531-7.784 8.076-20.162.926-28.6-7.615-8.986-21.073-10.097-30.059-2.482l-60.939 51.645-66.445 57.191 34.553 27.972z" fill="#ffe0d1" data-original="#ffe0d1"></path><path d="m248.765 379.464 66.446-57.191 60.939-51.645c4.323-3.664 9.675-5.308 14.92-5.027-.661-1.181-1.438-2.296-2.346-3.368-7.615-8.986-21.073-10.097-30.059-2.482l-60.939 51.645-66.445 57.191 34.553 27.972 1.927-1.718z" fill="#ffd1c2" data-original="#ffd1c2"></path><g><g id="XMLID_169_"><g><path d="m308.661 348.756 1.71.19h65.38c4.99 0 9.81-1.77 13.61-4.99l69.37-58.79c4.01-3.39 8.9-5.05 13.77-5.05 6.05 0 12.06 2.56 16.28 7.53 7.62 8.99 6.51 22.45-2.48 30.06l-109.5 92.81c-11.31 9.58-25.19 15.63-39.91 17.4l-122.28 14.71-45.91 54.97c-2.575 3.084-6.762 4.3-10.589 3.076l-128.163-40.996c-6.575-2.103-9.019-10.13-4.732-15.54l49.044-61.9 3.89-8.21c19.07-40.21 59.6-65.84 104.1-65.84h103.57c7.38 0 14.05 2.99 18.89 7.82 4.83 4.84 7.82 11.51 7.82 18.89 0 5.08-1.42 9.82-3.87 13.86z" fill="#ffe0d1" data-original="#ffe0d1"></path></g><g><path d="m313.41 363.345 1.772.202h67.739c5.17 0 10.164-1.881 14.101-5.302l71.872-62.464c4.155-3.602 9.221-5.366 14.267-5.366 2.918 0 5.836.563 8.553 1.725-.769-1.591-1.737-3.085-2.933-4.496-4.22-4.97-10.23-7.53-16.28-7.53-4.87 0-9.76 1.66-13.77 5.05l-69.37 58.79c-3.8 3.22-8.62 4.99-13.61 4.99h-58.342c-.059 5.275-1.513 10.196-3.999 14.401z" fill="#ffd1c2" data-original="#ffd1c2"></path></g><g><g id="XMLID_170_"><g><g fill="#ffd1c2"><path d="m310.371 348.946-1.71-.19c.171-.281.324-.574.484-.862h-159.193c0 15.851 12.85 28.702 28.702 28.702h106.44c.251.004.501.007.752.007 14.45 0 28.103-7.682 35.642-20.07 1.462-2.411 2.665-4.954 3.606-7.587z" fill="#ffd1c2" data-original="#ffd1c2"></path><path d="m317.825 349.232-38.196 27.364h5.465c.251.004.501.007.752.007 14.45 0 28.103-7.682 35.642-20.07 2.821-4.652 4.673-9.797 5.515-15.133z" fill="#ffd1c2" data-original="#ffd1c2"></path><path d="m326.809 342.52c.465-2.505.722-5.054.722-7.624 0-11.128-4.334-21.6-12.225-29.508-1.643-1.639-3.403-3.115-5.252-4.44l-12.328 10.448-66.445 57.191 9.894 8.009h43.919c.251.004.501.007.752.007.824 0 1.644-.032 2.461-.081l31.101-27.73z" fill="#ffd1c2" data-original="#ffd1c2"></path></g><path d="m312.531 334.896c0 5.08-1.42 9.82-3.87 13.86-4.79 7.87-13.53 13.06-23.42 12.84h-133.94l-53.77-16.29c21.48-23.29 52.03-37.12 84.72-37.12h103.57c7.38 0 14.05 2.99 18.89 7.82 4.83 4.84 7.82 11.51 7.82 18.89z" fill="#ffe0d1" data-original="#ffe0d1"></path></g></g></g></g><path d="m302.249 7.5h-168.433c-29.902 0-54.142 24.24-54.142 54.142v104.881c0 29.902 24.24 54.142 54.142 54.142h22.82l13.485 30.291c2.403 5.397 10.063 5.397 12.466 0l13.485-30.291h106.178c29.902 0 54.142-24.24 54.142-54.142v-104.881c0-29.902-24.241-54.142-54.143-54.142z" fill="#fbe88c" data-original="#fbe88c"></path><circle cx="218.033" cy="113.624" fill="#f9f7f7" r="62.628" data-original="#f9f7f7"></circle></g><g><path d="m90.522 404.43 3.89-8.21c19.07-40.21 59.6-65.84 104.1-65.84h103.57c3.666 0 7.168.746 10.346 2.08-.58-6.403-3.426-12.154-7.717-16.454-4.84-4.83-11.51-7.82-18.89-7.82h-103.57c-44.5 0-85.03 25.63-104.1 65.84l-3.89 8.21-49.044 61.9c-4.287 5.41-1.843 13.437 4.732 15.54l13.404 4.287z" fill="#ffd1c2" data-original="#ffd1c2"></path></g><path d="m173.058 183.177c-23.188 0-41.985-18.797-41.985-41.985v-115.14c0-6.662 1.558-12.957 4.319-18.552h-1.576c-29.902 0-54.142 24.24-54.142 54.142v104.881c0 29.902 24.24 54.142 54.142 54.142h22.82l13.485 30.291c2.403 5.397 10.063 5.397 12.466 0l13.485-30.291h106.178c24.09 0 44.506-15.746 51.532-37.497z" fill="#fbe372" data-original="#fbe372" class=""></path></g><g><path d="m494.507 282.799c-4.979-5.874-11.946-9.458-19.62-10.092-7.671-.634-15.135 1.759-21.009 6.737l-3.863 3.274c-.929-4.785-3.065-9.278-6.303-13.099-10.277-12.125-28.502-13.63-40.629-3.354l-3.44 2.915c-.963-4.54-3.035-8.91-6.242-12.695-10.277-12.126-28.505-13.631-40.629-3.354l-57.647 48.854c-2.96-.838-6.078-1.296-9.303-1.296h-103.575c-23.256 0-45.938 6.571-65.593 19.001-19.655 12.431-35.312 30.107-45.28 51.12l-3.527 7.437-57.375 72.424c-2.572 3.247-2.025 7.964 1.222 10.536 1.378 1.092 3.021 1.622 4.652 1.622 2.212 0 4.403-.975 5.884-2.843l57.906-73.095c.353-.445.654-.93.897-1.443l3.894-8.209c17.736-37.39 55.937-61.55 97.32-61.55h103.576c10.589 0 19.204 8.615 19.204 19.205 0 5.211-2.052 10.088-5.777 13.732-3.618 3.539-8.364 5.473-13.406 5.473-.146 0-67.454-.007-67.454-.007-4.142 0-7.5 3.358-7.5 7.5s3.358 7.5 7.5 7.5h66.77c9.248.169 17.968-3.275 24.579-9.742.945-.924 1.822-1.898 2.645-2.907h63.372c6.75 0 13.303-2.403 18.451-6.767l69.369-58.789c2.818-2.388 6.407-3.539 10.077-3.231 3.681.304 7.023 2.023 9.411 4.841 2.388 2.817 3.536 6.396 3.232 10.077-.305 3.681-2.023 7.023-4.841 9.411l-109.506 92.805c-10.22 8.661-22.652 14.084-35.953 15.685l-19.766 2.378c-4.113.495-7.046 4.229-6.551 8.342.458 3.809 3.694 6.605 7.437 6.605.299 0 .602-.018.905-.055l19.766-2.378c16.226-1.952 31.393-8.568 43.859-19.134l109.506-92.804c5.875-4.978 9.459-11.946 10.092-19.62.634-7.674-1.759-15.135-6.737-21.01zm-132.037-18.223c5.814-4.928 14.56-4.208 19.489 1.609 4.543 5.362 4.366 13.167-.367 18.294l-61.612 52.216c.031-.597.048-1.197.048-1.799 0-9.892-4.225-18.811-10.96-25.062zm-24.894 76.868 75.204-63.734c5.817-4.929 14.56-4.207 19.488 1.608 2.388 2.818 3.536 6.397 3.232 10.078-.305 3.681-2.023 7.023-4.841 9.411l-46.152 39.427c-2.442 2.07-5.551 3.21-8.753 3.21z" fill="#000000" data-original="#000000" class=""></path><path d="m284.267 426.697-70.552 8.487c-1.897.228-3.636 1.172-4.86 2.638l-50.172 60.064c-2.656 3.179-2.231 7.909.948 10.564 1.403 1.172 3.108 1.744 4.804 1.744 2.146 0 4.277-.916 5.76-2.692l48.266-57.782 67.598-8.131c4.112-.495 7.046-4.229 6.551-8.342-.496-4.112-4.24-7.045-8.343-6.55z" fill="#000000" data-original="#000000" class=""></path><path d="m133.816 228.166h17.949l11.504 25.842c2.333 5.242 7.348 8.498 13.085 8.498 5.738 0 10.751-3.256 13.084-8.498l11.504-25.842h38.417c4.142 0 7.5-3.358 7.5-7.5s-3.358-7.5-7.5-7.5h-43.288c-2.962 0-5.647 1.744-6.852 4.45l-12.866 28.901-12.866-28.901c-1.205-2.706-3.889-4.45-6.852-4.45h-22.82c-25.719 0-46.643-20.924-46.643-46.643v-104.88c.002-25.719 20.926-46.643 46.644-46.643h168.433c25.719 0 46.643 20.924 46.643 46.643v104.88c0 25.719-20.924 46.643-46.643 46.643h-30.927c-4.143 0-7.5 3.358-7.5 7.5s3.357 7.5 7.5 7.5h30.927c33.99 0 61.643-27.653 61.643-61.643v-104.88c-.001-33.99-27.653-61.643-61.643-61.643h-168.433c-33.99 0-61.643 27.653-61.643 61.643v104.88c.001 33.99 27.654 61.643 61.643 61.643z" fill="#000000" data-original="#000000" class=""></path><path d="m171.068 71.547c-3.39-2.381-8.067-1.562-10.448 1.828-8.318 11.845-12.715 25.763-12.715 40.25 0 38.668 31.459 70.127 70.128 70.127s70.128-31.459 70.128-70.127c0-10.849-2.478-21.13-6.895-30.309l24.011-22.947c2.995-2.862 3.103-7.609.24-10.604s-7.61-3.103-10.604-.241l-21.773 20.807c-12.851-16.323-32.769-26.835-55.108-26.835-10.507 0-20.624 2.276-30.068 6.765-3.741 1.778-5.333 6.252-3.555 9.993s6.252 5.333 9.993 3.555c7.417-3.525 15.367-5.312 23.629-5.312 18.083 0 34.158 8.753 44.217 22.243l-46.792 44.718-9.429-9.429c-2.929-2.929-7.678-2.929-10.606 0-2.929 2.929-2.929 7.678 0 10.606l14.613 14.613c1.463 1.463 3.382 2.197 5.304 2.197 1.864 0 3.73-.691 5.181-2.078l49.167-46.987c2.241 5.995 3.473 12.478 3.473 19.244 0 30.397-24.73 55.127-55.128 55.127s-55.128-24.73-55.128-55.127c0-11.385 3.455-22.322 9.99-31.629 2.383-3.39 1.565-8.068-1.825-10.448z" fill="#000000" data-original="#000000" class=""></path></g></g></g></svg>