<svg xmlns="http://www.w3.org/2000/svg" version="1.1" xmlns:xlink="http://www.w3.org/1999/xlink" xmlns:svgjs="http://svgjs.com/svgjs" width="512" height="512" x="0" y="0" viewBox="0 0 180.622 180.622" style="enable-background:new 0 0 512 512" xml:space="preserve" class=""><g><g id="Layer_x0020_1"><g id="_212250000"><g><g><path id="_212250480" d="m159.728 151.909h-112.156c-1.3652 0-2.4695-1.1041-2.4695-2.4695v-146.968c0-1.3652 1.1041-2.4694 2.4695-2.4694h112.156c1.3652 0 2.4694 1.1041 2.4694 2.4694v146.968c-.0001 1.3617-1.1042 2.4695-2.4694 2.4695zm-109.687-4.9388h107.218v-142.029h-107.218z" fill="#000000" data-original="#000000" class=""></path></g><g><path id="_212250384" d="m20.891 166.263c-1.3652 0-2.4694-1.1041-2.4694-2.4694l.0001-146.968c0-9.2779 7.0943-16.8237 15.8112-16.8237h13.3418c1.3652 0 2.4694 1.1041 2.4694 2.4694v146.968c0 1.3652-1.1041 2.4695-2.4694 2.4695h-13.3418c-5.9936 0-10.8724 5.3339-10.8724 11.8883 0 1.3617-1.1078 2.4659-2.4695 2.4659zm13.3419-161.322c-5.9936 0-10.8724 5.3339-10.8724 11.8848v134.762c2.8362-2.861 6.6638-4.6213 10.8724-4.6213l10.8723.0001v-142.026h-10.8723z" fill="#000000" data-original="#000000" class=""></path></g><g><path id="_212250312" d="m159.728 180.62h-125.495c-8.7169 0-15.8112-7.5493-15.8112-16.8272s7.0943-16.8272 15.8112-16.8272h125.498c1.3652 0 2.4695 1.1041 2.4695 2.4694s-1.1042 2.4695-2.4695 2.4695c-5.9936 0-10.8724 5.3339-10.8724 11.8883s4.8787 11.8883 10.8724 11.8883c1.3652 0 2.4695 1.1041 2.4695 2.4695 0 1.3653-1.1078 2.4694-2.473 2.4694zm-125.495-28.712c-5.9936 0-10.8724 5.3339-10.8724 11.8883s4.8787 11.8883 10.8724 11.8883l114.319.0001c-2.8609-3.0443-4.6318-7.2494-4.6318-11.8883s1.7709-8.8404 4.6318-11.8883z" fill="#000000" data-original="#000000" class=""></path></g><g><path id="_212250072" d="m146.386 166.263h-76.4701c-1.3652 0-2.4694-1.1041-2.4694-2.4694s1.1041-2.4695 2.4694-2.4695h76.4737c1.3652 0 2.4695 1.1042 2.4695 2.4695s-1.1078 2.4694-2.4731 2.4694z" fill="#000000" data-original="#000000" class=""></path></g><g><g><g><path id="_212250024" d="m103.651 94.1916c-9.1861 0-13.9944-19.5824-13.9944-38.9283 0-19.346 4.8083-38.9282 13.9944-38.9282 9.1862 0 13.9944 19.5824 13.9944 38.9282.0001 19.3459-4.8082 38.9283-13.9944 38.9283zm0-72.9177c-3.1608 0-9.0556 11.6731-9.0556 33.9894s5.8948 33.9895 9.0556 33.9895c3.1609 0 9.0556-11.6732 9.0556-33.9895s-5.8947-33.9894-9.0556-33.9894z" fill="#000000" data-original="#000000" class=""></path></g><g><path id="_212250288" d="m78.7208 78.5179c-5.281 0-7.6904-1.8979-8.784-3.7922-1.5028-2.5999-1.7674-7.3659 5.4891-15.2997 5.0411-5.5103 12.5798-11.2922 21.2262-16.284 8.6464-4.9917 17.4234-8.6288 24.7152-10.2409 10.4985-2.3177 14.4919.2929 15.9946 2.8962 1.5028 2.5999 1.7674 7.366-5.489 15.2997-5.0411 5.5103-12.5799 11.2923-21.2263 16.284s-17.4233 8.6288-24.7152 10.2409c-2.8574.6315-5.2351.896-7.2106.896zm49.91-41.574c-1.6333 0-3.7006.2328-6.1946.7831-6.812 1.5063-15.0916 4.9493-23.3111 9.6942-8.2195 4.7448-15.342 10.1951-20.0515 15.342-4.3779 4.7871-5.5949 8.2161-4.8577 9.4966.7374 1.277 4.318 1.9402 10.6502.5397 6.812-1.5063 15.0916-4.9493 23.3111-9.6941 8.2196-4.7484 15.342-10.1951 20.0514-15.342 4.378-4.7872 5.5949-8.2161 4.8577-9.4966-.448-.7726-1.9402-1.3229-4.4555-1.3229z" fill="#000000" data-original="#000000" class=""></path></g><g><path id="_212250240" d="m128.582 78.5179c-1.9755 0-4.3497-.2646-7.2107-.896-7.2917-1.6121-16.0686-5.2492-24.7152-10.2409-8.6464-4.9917-16.1851-10.7772-21.2262-16.284-7.2565-7.9337-6.992-12.6962-5.4891-15.2997 1.5028-2.5998 5.4926-5.2139 15.9946-2.8962 7.2918 1.6121 16.0687 5.2492 24.7152 10.2409 8.6464 4.9918 16.1852 10.7772 21.2263 16.284 7.2564 7.9303 6.992 12.6962 5.4891 15.2997-1.0936 1.8944-3.5066 3.7922-8.784 3.7922zm-49.9101-41.574c-2.5187 0-4.011.5503-4.4555 1.3229-.7373 1.2771.4763 4.7094 4.8577 9.4966 4.7095 5.1469 11.832 10.5973 20.0515 15.342 8.2196 4.7447 16.4991 8.1878 23.3111 9.6941 6.3357 1.4005 9.9128.7373 10.6501-.5397.7373-1.2771-.4762-4.7095-4.8577-9.4966-4.7094-5.1469-11.8319-10.5973-20.0514-15.342s-16.4991-8.1879-23.3111-9.6942c-2.4941-.5503-4.5613-.7831-6.1947-.7831z" fill="#000000" data-original="#000000" class=""></path></g></g><g><path id="_212249640" d="m137.595 135.575h-69.2101c-1.3652 0-2.4695-1.1041-2.4695-2.4695v-23.8473c0-1.3652 1.1042-2.4694 2.4695-2.4694h69.2101c1.3652 0 2.4694 1.1041 2.4694 2.4694v23.8473c0 1.3653-1.1042 2.4695-2.4694 2.4695zm-66.7408-4.9389h64.2713v-18.9085l-64.2713.0001z" fill="#000000" data-original="#000000" class=""></path></g></g></g></g><path d="m70.854 130.636h64.271v-18.908h-64.271z" fill="#f2baba" data-original="#f2baba" class=""></path><path d="m68.3847 106.789h69.2101c1.3652 0 2.4694 1.1041 2.4694 2.4694v23.8473c0 1.3653-1.1042 2.4695-2.4694 2.4695h-69.2101c-1.3652 0-2.4695-1.1041-2.4695-2.4695v-23.8473c0-1.3652 1.1042-2.4694 2.4695-2.4694zm35.2664-12.5974c-5.7484 0-9.7825-7.6683-11.9968-18.1482-1.9836.6458-3.8997 1.1754-5.7229 1.5785-2.8574.6315-5.2351.896-7.2106.896-5.281 0-7.6904-1.8979-8.784-3.7922-1.5028-2.5999-1.7674-7.3659 5.4891-15.2997 1.2602-1.3775 2.6765-2.772 4.2271-4.1668-1.5493-1.3937-2.9644-2.7866-4.2236-4.1622-7.2565-7.9337-6.992-12.6962-5.4891-15.2997 1.5028-2.5998 5.4926-5.2139 15.9946-2.8962 1.8224.4029 3.7376.9323 5.7203 1.5777 2.2145-10.4777 6.2483-18.1437 11.9959-18.1437s9.7814 7.6661 11.9959 18.1437c1.9827-.6454 3.8979-1.1748 5.7203-1.5777 10.4985-2.3177 14.4919.2929 15.9946 2.8962 1.5028 2.5999 1.7674 7.366-5.489 15.2997-1.2592 1.3765-2.6744 2.7699-4.2236 4.1637 1.5506 1.3947 2.9669 2.7887 4.2271 4.1653 7.2564 7.9303 6.992 12.6962 5.4891 15.2997-1.0936 1.8944-3.5066 3.7922-8.784 3.7922-1.9755 0-4.3497-.2646-7.2107-.896-1.8232-.4031-3.7392-.9328-5.7228-1.5786-2.2143 10.48-6.2484 18.1483-11.9969 18.1483zm-53.607 52.7745h107.214v-142.026h-107.214z" fill="#61dbfb" data-original="#46bca9" class=""></path><path d="m148.552 151.909-100.977-.0001h-.0035-13.3383c-5.9936 0-10.8724 5.3339-10.8724 11.8883s4.8787 11.8883 10.8724 11.8883l114.319.0001c-2.3444-2.4947-3.9568-5.7689-4.4626-9.4225h-74.1735c-1.3652 0-2.4694-1.1041-2.4694-2.4694s1.1041-2.4695 2.4694-2.4695h74.1745c.507-3.6498 2.1188-6.9193 4.4616-9.4152z" fill="#ededed" data-original="#ededed" class=""></path><path d="m103.651 39.4088c2.4837-1.2164 4.942-2.3047 7.3359-3.2488-1.9887-9.8261-5.2548-14.8861-7.3359-14.8861-2.081 0-5.3472 5.06-7.3359 14.8861 2.3938.9441 4.8521 2.0324 7.3359 3.2488z" fill="#fddac0" data-original="#fddac0"></path><path d="m116.524 39.3928c.3794 2.5573.6633 5.2227.8505 7.9386 2.2881 1.5378 4.4533 3.1174 6.4625 4.7132 1.6272-1.4359 3.1001-2.8698 4.3915-4.2812 4.378-4.7872 5.5949-8.2161 4.8577-9.4966-.448-.7726-1.9402-1.3229-4.4555-1.3229-1.6333 0-3.7006.2328-6.1946.7831-1.8706.4136-3.8518.9733-5.9121 1.6658z" fill="#fffad1" data-original="#fffad1" class=""></path><path d="m112.598 50.1076c-1.4308-.9152-2.9071-1.8128-4.4205-2.6864-1.5098-.8716-3.0217-1.6992-4.5261-2.479-1.5044.7798-3.0162 1.6074-4.526 2.479-1.5135.8737-2.9898 1.7713-4.4206 2.6865-.0712 1.6499-.109 3.3686-.109 5.1556s.0378 3.5057.109 5.1557c1.4309.9152 2.9071 1.8128 4.4206 2.6864 1.5098.8715 3.0217 1.6992 4.5261 2.4789 1.5044-.7797 3.0162-1.6074 4.526-2.4789 1.5135-.8743 2.9897-1.7723 4.4206-2.6878.0711-1.6495.1089-3.3678.1089-5.1543 0-1.787-.0378-3.5057-.109-5.1557z" fill="#ae96a0" data-original="#ae96a0" class=""></path><path d="m123.835 58.4791c-2.0084 1.595-4.1726 3.1736-6.4596 4.7104-.1872 2.7179-.4712 5.3852-.8508 7.9442 2.0602.6925 4.0415 1.2522 5.912 1.6658 6.3357 1.4005 9.9128.7373 10.6501-.5397.7373-1.2771-.4762-4.7095-4.8577-9.4966-1.2921-1.4121-2.7658-2.8471-4.394-4.2841z" fill="#d4edff" data-original="#d4edff" class=""></path><path d="m89.9276 47.3309c.1873-2.7158.4712-5.381.8505-7.938-2.0603-.6926-4.0415-1.2523-5.912-1.6659-2.4941-.5503-4.5613-.7831-6.1947-.7831-2.5187 0-4.011.5503-4.4555 1.3229-.7373 1.2771.4763 4.7094 4.8577 9.4966 1.2911 1.411 2.7636 2.8449 4.3903 4.2807 2.0096-1.5959 4.1752-3.1755 6.4637-4.7132z" fill="#d4edff" data-original="#d4edff" class=""></path><path d="m89.9272 63.189c-2.2867-1.537-4.4506-3.1157-6.4586-4.7106-1.6286 1.4372-3.1026 2.8724-4.395 4.2848-4.3779 4.7871-5.5949 8.2161-4.8577 9.4966.7374 1.277 4.318 1.9402 10.6502.5397 1.8705-.4136 3.8517-.9733 5.912-1.6658-.3796-2.5592-.6637-5.2266-.8509-7.9447z" fill="#fffad1" data-original="#fffad1" class=""></path><path d="m103.651 71.1124c-2.4841 1.2167-4.9427 2.3053-7.3369 3.2496 1.9886 9.8292 5.2554 14.8908 7.3368 14.8908s5.3483-5.0617 7.3368-14.8908c-2.3941-.9443-4.8527-2.0329-7.3367-3.2496z" fill="#fddac0" data-original="#fddac0"></path><path d="m109.144 68.2341c.9001.4013 1.7931.7829 2.6768 1.144.1254-.9304.2396-1.8928.3412-2.8868-.5011.2991-1.0064.5958-1.5155.8897-.5005.2889-1.0014.5734-1.5025.8531z" fill="#d4edff" data-original="#d4edff" class=""></path><path d="m95.4814 69.3781c.8837-.361 1.7767-.7426 2.6768-1.144-.5011-.2797-1.0021-.5641-1.5026-.8531-.5091-.2939-1.0143-.5906-1.5155-.8897.1016.9941.2158 1.9564.3413 2.8868z" fill="#fddac0" data-original="#fddac0"></path><path d="m117.646 55.2633c0 .5752-.0042 1.1507-.0127 1.7259.7887-.5724 1.5572-1.1484 2.3037-1.7266-.7465-.5782-1.5151-1.1543-2.3038-1.7267.0085.5757.0128 1.1516.0128 1.7274z" fill="#fffad1" data-original="#fffad1" class=""></path><path d="m110.65 43.142c.5077.2931 1.0116.5889 1.5114.8873-.1015-.992-.2155-1.9523-.3407-2.8809-.8819.3603-1.773.7411-2.6713 1.1416.5004.2794 1.0007.5634 1.5006.852z" fill="#fddac0" data-original="#fddac0"></path><path d="m98.1526 42.29c-.8982-.4004-1.7894-.7813-2.6712-1.1416-.1252.9286-.2392 1.8889-.3406 2.8809.4997-.2984 1.0036-.5942 1.5113-.8873.4998-.2886 1.0001-.5726 1.5005-.852z" fill="#d4edff" data-original="#d4edff" class=""></path><path d="m89.6567 55.2633c0-.5757.0043-1.1517.0128-1.7273-.789.5726-1.5578 1.1488-2.3045 1.7273.7467.5785 1.5155 1.1547 2.3045 1.7274-.0085-.5757-.0128-1.1516-.0128-1.7274z" fill="#fffad1" data-original="#fffad1" class=""></path><path d="m31.3993 147.237c.9195-.1779 1.8665-.2709 2.8336-.2708h10.8688v-142.026h-10.8688c-5.9936 0-10.8724 5.3339-10.8724 11.8848v134.762c.0714-.0721.1435-.1434.2162-.2141.0051-.0049.0102-.0099.0152-.0148 2.1472-2.083 4.8339-3.5464 7.8074-4.1215z" fill="#3a5479" data-original="#3a5479" class=""></path></g></g></svg>