<svg xmlns="http://www.w3.org/2000/svg" version="1.1" xmlns:xlink="http://www.w3.org/1999/xlink" xmlns:svgjs="http://svgjs.com/svgjs" width="512" height="512" x="0" y="0" viewBox="0 0 512.086 512.086" style="enable-background:new 0 0 512 512" xml:space="preserve" class=""><g><g><g><circle cx="256.043" cy="257.043" fill="#f8f3f2" r="247.542" data-original="#f8f3f2" class=""></circle><path d="m105.305 257.043c0-120.148 85.597-220.305 199.136-242.814-15.655-3.103-31.832-4.729-48.398-4.729-136.714.001-247.543 110.829-247.543 247.543s110.829 247.542 247.542 247.542c16.566 0 32.747-1.626 48.402-4.73-113.537-22.507-199.139-122.664-199.139-242.812z" fill="#f2eae7" data-original="#f2eae7" class=""></path><circle cx="256.043" cy="257.043" fill="#b3e5ee" r="188.882" data-original="#b3e5ee" class=""></circle><path d="m172.289 426.388c-41.546-44.273-66.984-103.838-66.984-169.345s25.45-125.062 66.996-169.335c-62.301 30.87-105.14 95.094-105.14 169.335s42.827 138.475 105.128 169.345z" fill="#86d7e5" data-original="#86d7e5"></path><circle cx="256.043" cy="257.043" fill="#fbe372" r="124.689" data-original="#fbe372" class=""></circle><circle cx="256.043" cy="257.043" fill="#e79098" r="59.192" data-original="#e79098"></circle><g><g><path d="m497.363 89.843c6.54 2.66 8.1 11.22 2.92 16.02l-117.09 108.78c-2.53 2.35-6.12 3.17-9.42 2.16l-44.85-13.8-15.63-8.3-3.67-10.6-14.74-44.55c-1.08-3.28-.34-6.89 1.96-9.46l106.3-119.35c4.7-5.28 13.28-3.9 16.08 2.59l17.65 40.82 4.7 13.06 14.61 5.84z" fill="#cac5cb" data-original="#cac5cb" class=""></path></g><g><path d="m337.376 197.98-14.74-44.55c-1.08-3.28-.34-6.89 1.96-9.46l101.727-114.216-7.1-16.421c-2.8-6.49-11.38-7.87-16.08-2.59l-106.3 119.35c-2.3 2.57-3.04 6.18-1.96 9.46l14.74 44.55 3.67 10.6 15.63 8.3 11.408 3.51z" fill="#b3adb5" data-original="#b3adb5" class=""></path></g></g></g><g><path d="m416.406 435.646c-44.096 39.62-101.047 61.44-160.363 61.44-64.117 0-124.397-24.969-169.736-70.307-45.338-45.338-70.307-105.618-70.307-169.736s24.969-124.397 70.307-169.736c45.339-45.338 105.619-70.307 169.736-70.307 30.887 0 60.971 5.793 89.415 17.22 3.842 1.542 8.211-.319 9.756-4.164 1.544-3.843-.32-8.211-4.164-9.755-30.232-12.143-62.197-18.3-95.007-18.3-68.124 0-132.171 26.529-180.343 74.7-48.171 48.171-74.7 112.218-74.7 180.342s26.529 132.171 74.7 180.342c48.172 48.171 112.219 74.7 180.343 74.7 63.023 0 123.535-23.185 170.389-65.283 3.081-2.768 3.335-7.51.566-10.591-2.769-3.08-7.511-3.335-10.592-.565z" fill="#000000" data-original="#000000" class=""></path><path d="m491.387 158.614c-1.599-3.821-5.994-5.621-9.814-4.021-3.821 1.6-5.621 5.994-4.021 9.814 12.299 29.375 18.535 60.542 18.535 92.636 0 57.221-20.479 112.643-57.663 156.058-2.694 3.146-2.328 7.881.817 10.575 1.414 1.211 3.148 1.804 4.875 1.804 2.115 0 4.217-.89 5.7-2.621 39.511-46.131 61.271-105.019 61.271-165.815-.001-34.095-6.629-67.211-19.7-98.43z" fill="#000000" data-original="#000000" class=""></path><path d="m91.136 164.575c-3.688-1.882-8.206-.42-10.091 3.269-14.189 27.787-21.385 57.798-21.385 89.2 0 108.286 88.097 196.382 196.383 196.382s196.383-88.097 196.383-196.382c0-18.379-2.542-36.585-7.557-54.112-1.14-3.982-5.293-6.283-9.273-5.148-3.982 1.14-6.287 5.292-5.148 9.274 4.631 16.185 6.979 33.003 6.979 49.986 0 100.015-81.368 181.382-181.383 181.382s-181.384-81.368-181.384-181.383c0-29.008 6.643-56.724 19.744-82.378 1.884-3.689.42-8.206-3.268-10.09z" fill="#000000" data-original="#000000" class=""></path><path d="m313.128 76.799c1.091-3.996-1.265-8.12-5.261-9.21-16.84-4.597-34.276-6.927-51.824-6.927-31.505 0-61.601 7.237-89.45 21.51-26.559 13.612-50.062 33.476-67.969 57.445-2.479 3.318-1.8 8.018 1.519 10.497 1.348 1.006 2.922 1.492 4.483 1.492 2.285 0 4.541-1.041 6.014-3.012 16.547-22.146 38.261-40.499 62.795-53.073 25.712-13.178 53.505-19.859 82.608-19.859 16.214 0 32.321 2.152 47.875 6.398 3.993 1.09 8.119-1.265 9.21-5.261z" fill="#000000" data-original="#000000" class=""></path><path d="m272.101 133.161c.281-4.133-2.842-7.71-6.975-7.991-3.09-.209-6.146-.316-9.084-.316-72.89 0-132.189 59.3-132.189 132.189s59.3 132.189 132.189 132.189 132.189-59.3 132.189-132.189c0-3.485-.143-7.05-.424-10.597-.328-4.128-3.923-7.213-8.069-6.884-4.129.328-7.211 3.94-6.884 8.069.25 3.154.377 6.321.377 9.412 0 64.618-52.571 117.189-117.189 117.189s-117.189-52.571-117.189-117.189 52.571-117.189 117.189-117.189c2.601 0 5.314.095 8.068.282 4.114.273 7.711-2.842 7.991-6.975z" fill="#000000" data-original="#000000" class=""></path><path d="m255.991 205.352c.136.005.271.009.408.01 4.112-.005 7.535-3.305 7.564-7.447.03-4.142-3.293-7.524-7.435-7.554-.162-.005-.323-.01-.486-.01-36.773 0-66.691 29.918-66.691 66.692s29.918 66.692 66.691 66.692c36.484 0 66.396-29.682 66.68-66.167.032-4.142-3.3-7.526-7.441-7.558h-.06c-4.115 0-7.467 3.32-7.499 7.442-.219 28.278-23.402 51.283-51.68 51.283-28.503 0-51.691-23.189-51.691-51.692s23.189-51.692 51.64-51.691z" fill="#000000" data-original="#000000" class=""></path><path d="m461.983 67.127-174.87 176.118c-7.352 7.405-17.362 11.559-27.797 11.535-.242-10.432 3.701-20.527 10.95-28.033l172.413-178.524c3.765-3.896 9.982-3.982 13.853-.191l5.352 5.241c3.871 3.791 3.915 10.008.099 13.854z" fill="#f2eae7" data-original="#f2eae7" class=""></path><path d="m287.764 141.906 13.777 41.66-36.671 37.97c-8.583 8.887-13.341 21.067-13.053 33.418.095 4.066 3.414 7.316 7.481 7.325h.102c12.317 0 24.354-5.009 33.034-13.751l9.371-9.438c2.918-2.939 2.901-7.688-.038-10.606-2.938-2.917-7.688-2.903-10.606.038l-9.371 9.438c-3.879 3.907-8.748 6.714-14.008 8.173 1.348-5.289 4.052-10.215 7.877-14.175l172.414-178.524c.541-.56 1.166-.684 1.596-.69.402-.01 1.058.101 1.615.646l5.352 5.24c.557.545.678 1.171.681 1.601s-.108 1.059-.656 1.61l-142.572 143.59c-2.918 2.939-2.901 7.688.038 10.606 2.938 2.917 7.687 2.902 10.606-.038l4.895-4.93s45.281 13.656 46.964 13.656c4.279 0 8.488-1.599 11.702-4.583l117.099-108.78c4.316-4.01 6.261-9.864 5.201-15.659-1.059-5.795-4.948-10.583-10.403-12.806l-31.07-12.667c2.091-2.934 3.221-6.429 3.195-10.104-.033-4.633-1.874-8.969-5.185-12.211l-5.352-5.24c-3.252-3.185-7.53-4.93-12.072-4.93-.081 0-.163 0-.245.001-3.675.051-7.146 1.254-10.035 3.406l-13.316-30.798c-2.338-5.407-7.206-9.195-13.022-10.132-5.815-.936-11.628 1.13-15.546 5.529l-106.3 119.352c-4.065 4.562-5.398 11.001-3.479 16.803zm155.519 6.679-36.74-14.979 23.316-23.482 38.104 15.535zm-36.918 34.295-34.611-14.237 23.34-23.506 36.071 14.706zm-28.28 26.272c-.562.524-1.37.709-2.107.482l-34.413-10.586 18.755-18.889 33.944 13.963zm117.754-110.752c.079.436.1 1.271-.655 1.973l-15.102 14.029-38.774-15.808 16.613-16.732 36.607 14.925c.955.389 1.231 1.178 1.311 1.613zm-145.21-17.423 15.459 35.755-23.012 23.828-14.959-34.306zm33.405-37.507 16.33 37.771-22.988 23.803-15.746-36.419zm24.71-27.743c.687-.771 1.524-.768 1.959-.696.437.07 1.231.33 1.641 1.276l15.689 36.286-16.38 16.96-16.617-38.435zm-106.301 119.352 14.687-16.49 14.671 33.645-18.491 19.146-11.305-34.184c-.241-.731-.073-1.542.438-2.117z" fill="#000000" data-original="#000000" class=""></path></g></g></g></svg>