<svg width="1280" height="640" viewBox="0 0 1280 640" fill="none" xmlns="http://www.w3.org/2000/svg">
<g filter="url(#filter0_d)">
<path d="M115.098 320.375C113.275 321.026 111.777 321.352 110.605 321.352L106.309 361.586L90.293 363.148L81.1133 260.219C86.7122 258.396 94.1992 256.768 103.574 255.336C112.949 253.773 121.934 252.992 130.527 252.992C144.199 252.992 155.137 255.531 163.34 260.609C165.163 266.339 166.074 271.612 166.074 276.43C166.074 289.841 158.392 300.974 143.027 309.828L169.785 360.805L158.652 367.055L115.098 320.375ZM135.215 280.922C135.215 273.37 131.895 267.51 125.254 263.344C122.65 263.344 119.785 263.93 116.66 265.102L111.777 311.195C119.199 307.81 124.928 303.318 128.965 297.719C133.132 292.12 135.215 286.521 135.215 280.922ZM215.488 274.672C241.27 284.958 254.16 297.849 254.16 313.344C254.16 321.417 251.882 327.211 247.324 330.727C242.767 334.242 235.475 336 225.449 336C215.553 336 208.066 335.414 202.988 334.242C201.035 339.19 199.993 344.398 199.863 349.867C204.681 350.518 211.387 350.844 219.98 350.844C228.574 350.844 237.819 349.151 247.715 345.766L252.402 361.195C244.59 363.669 235.866 364.906 226.23 364.906C208.913 364.906 196.217 361.716 188.145 355.336C186.452 347.784 185.605 340.688 185.605 334.047C185.605 320.635 188.535 308.526 194.395 297.719C200.384 286.781 207.415 279.099 215.488 274.672ZM206.113 326.82C207.415 326.951 210.866 327.016 216.465 327.016C222.194 327.016 228.704 326.234 235.996 324.672C236.257 322.719 236.452 320.701 236.582 318.617C236.582 312.237 234.759 306.117 231.113 300.258C220.436 307.289 212.103 316.143 206.113 326.82ZM284.238 364.711C282.415 364.711 281.113 364.646 280.332 364.516C276.686 362.042 273.757 358.396 271.543 353.578C269.46 348.76 268.418 343.357 268.418 337.367C268.418 331.247 270.957 326.69 276.035 323.695C281.243 320.57 290.749 319.008 304.551 319.008C309.629 319.008 315.033 319.333 320.762 319.984L320.371 316.469C319.98 312.172 317.962 308.786 314.316 306.312C310.671 303.839 305.983 302.602 300.254 302.602C294.655 302.602 289.056 304.359 283.457 307.875L276.426 284.828C285.54 281.052 295.957 279.164 307.676 279.164C319.395 279.164 328.639 281.833 335.41 287.172C342.311 292.38 345.762 300.583 345.762 311.781C345.762 314.385 345.632 316.404 345.371 317.836L341.074 361.977L325.059 363.344L322.715 340.297H321.543C317.897 347.979 312.819 353.969 306.309 358.266C299.928 362.562 292.572 364.711 284.238 364.711ZM321.348 326.82L312.949 326.625C305.918 326.625 300.124 327.016 295.566 327.797C294.134 330.792 293.418 333.461 293.418 335.805C293.418 338.148 293.678 340.427 294.199 342.641C294.85 344.724 295.566 346.091 296.348 346.742C309.108 344.789 317.441 338.148 321.348 326.82ZM391.66 350.844C401.816 350.844 411.452 349.151 420.566 345.766L425.449 361.195C417.897 363.669 410.02 364.906 401.816 364.906C393.613 364.906 386.322 363.995 379.941 362.172C373.691 360.479 369.004 358.201 365.879 355.336C364.316 347.654 363.47 340.557 363.34 334.047C363.34 320.766 366.335 308.656 372.324 297.719C378.444 286.781 385.41 279.099 393.223 274.672L420.957 292.836C407.546 300.128 396.934 308.786 389.121 318.812C381.439 328.708 377.598 339.06 377.598 349.867C382.155 350.518 386.842 350.844 391.66 350.844ZM452.988 363.344L446.152 298.891L431.309 300.844L430.332 284.438L444.395 283.656L442.051 261.391L481.895 255.922L478.574 281.898L494.59 281.117L494.004 291.859L477.012 294.203L468.809 361.977L452.988 363.344ZM550.254 361L580.137 254.555L618.809 256.898L639.512 361L625.254 363.344L614.121 336.781L571.543 340.297L566.074 363.344L550.254 361ZM587.168 274.672L574.473 327.992L610.605 328.383L588.34 274.672H587.168ZM703.965 342.25C707.871 337.172 710.54 331.638 711.973 325.648C713.535 319.659 714.316 314.451 714.316 310.023C714.316 305.596 713.73 296.938 712.559 284.047L746.738 278.969L736.387 361.977L720.566 363.344L717.441 333.07H716.27C708.327 354.164 695.762 364.711 678.574 364.711C675.97 364.711 673.822 364.255 672.129 363.344C666.66 356.833 662.949 345.635 660.996 329.75C659.043 313.865 658.066 298.044 658.066 282.289L689.902 279.945C688.079 298.565 687.103 312.497 686.973 321.742C686.973 330.987 687.754 341.013 689.316 351.82C695.176 350.518 700.059 347.328 703.965 342.25ZM781.895 363.344L775.059 298.891L760.215 300.844L759.238 284.438L773.301 283.656L770.957 261.391L810.801 255.922L807.48 281.898L823.496 281.117L822.91 291.859L805.918 294.203L797.715 361.977L781.895 363.344ZM901.426 277.211C903.249 277.211 905.202 277.602 907.285 278.383C912.754 284.893 916.465 296.286 918.418 312.562C920.371 328.839 921.348 344.984 921.348 361L892.637 363.344C892.637 338.734 891.79 316.404 890.098 296.352C875.905 301.56 866.4 323.435 861.582 361.977L845.762 363.344L837.754 251.82L871.934 246.547L865.879 312.367H867.441C871.868 301.69 877.012 293.161 882.871 286.781C888.73 280.401 894.915 277.211 901.426 277.211ZM1080.53 265.492L1046.74 300.844L1086.39 360.805L1052.4 363.148L1030.92 317.641L1027.21 321.352L1022.91 361.586L1005.33 363.148L996.152 256.898L1034.24 254.555L1029.16 302.797L1066.27 254.555L1080.53 265.492ZM1108.65 363.344L1100.64 284.047L1134.82 278.969L1124.47 361.977L1108.65 363.344ZM1105.53 266.469C1102.66 263.474 1101.23 259.958 1101.23 255.922C1101.23 251.755 1102.66 248.24 1105.53 245.375C1108.52 242.51 1112.04 241.078 1116.07 241.078C1120.11 241.078 1123.56 242.51 1126.43 245.375C1129.42 248.24 1130.92 251.755 1130.92 255.922C1130.92 259.958 1129.42 263.474 1126.43 266.469C1123.56 269.333 1120.11 270.766 1116.07 270.766C1112.04 270.766 1108.52 269.333 1105.53 266.469ZM1169.98 363.344L1163.14 298.891L1148.3 300.844L1147.32 284.438L1161.39 283.656L1159.04 261.391L1198.89 255.922L1195.57 281.898L1211.58 281.117L1211 291.859L1194 294.203L1185.8 361.977L1169.98 363.344Z" fill="#108AFC"/>
</g>
<defs>
<filter id="filter0_d" x="-4" y="0" width="1288" height="648" filterUnits="userSpaceOnUse" color-interpolation-filters="sRGB">
<feFlood flood-opacity="0" result="BackgroundImageFix"/>
<feColorMatrix in="SourceAlpha" type="matrix" values="0 0 0 0 0 0 0 0 0 0 0 0 0 0 0 0 0 0 127 0"/>
<feOffset dy="4"/>
<feGaussianBlur stdDeviation="2"/>
<feColorMatrix type="matrix" values="0 0 0 0 0 0 0 0 0 0 0 0 0 0 0 0 0 0 0.25 0"/>
<feBlend mode="normal" in2="BackgroundImageFix" result="effect1_dropShadow"/>
<feBlend mode="normal" in="SourceGraphic" in2="effect1_dropShadow" result="shape"/>
</filter>
</defs>
</svg>
