<svg width="1024" height="1024" viewBox="0 0 1024 1024" fill="none" xmlns="http://www.w3.org/2000/svg">
<path d="M1024 512.062C1024 444.227 939.049 379.94 808.806 340.073C838.862 207.325 825.503 101.711 766.643 67.8973C753.076 59.9658 737.213 56.2087 719.889 56.2087V102.754C729.49 102.754 737.213 104.633 743.684 108.181C772.07 124.461 784.385 186.453 774.784 266.185C772.488 285.805 768.731 306.469 764.139 327.55C723.229 317.531 678.562 309.808 631.599 304.799C603.421 266.185 574.2 231.119 544.77 200.437C612.814 137.194 676.683 102.545 720.098 102.545V56C662.699 56 587.558 96.9099 511.583 167.876C435.607 97.3274 360.466 56.8349 303.067 56.8349V103.38C346.273 103.38 410.351 137.82 478.395 200.646C449.174 231.328 419.953 266.185 392.192 304.799C345.021 309.808 300.354 317.531 259.444 327.759C254.643 306.886 251.095 286.64 248.59 267.229C238.78 187.496 250.886 125.505 279.064 109.016C285.326 105.259 293.466 103.589 303.067 103.589V57.0436C285.534 57.0436 269.671 60.8006 255.896 68.7322C197.244 102.545 184.095 207.951 214.36 340.282C84.5332 380.357 0 444.435 0 512.062C0 579.897 84.9507 644.184 215.194 684.051C185.138 816.799 198.497 922.413 257.357 956.227C270.924 964.158 286.787 967.915 304.32 967.915C361.719 967.915 436.859 927.005 512.835 856.039C588.81 926.588 663.951 967.08 721.35 967.08C738.883 967.08 754.746 963.323 768.522 955.392C827.173 921.579 840.323 816.173 810.058 683.842C939.467 643.976 1024 579.689 1024 512.062ZM752.241 372.843C744.519 399.768 734.917 427.529 724.064 455.289C715.506 438.591 706.531 421.893 696.721 405.195C687.119 388.497 676.892 372.217 666.665 356.354C696.303 360.737 724.898 366.164 752.241 372.843ZM656.646 595.134C640.365 623.312 623.667 650.029 606.343 674.867C575.243 677.58 543.726 679.041 512 679.041C480.483 679.041 448.965 677.58 418.074 675.075C400.75 650.237 383.843 623.729 367.563 595.76C351.7 568.417 337.298 540.657 324.148 512.688C337.089 484.719 351.7 456.75 367.354 429.407C383.635 401.23 400.333 374.513 417.657 349.675C448.757 346.961 480.274 345.5 512 345.5C543.517 345.5 575.035 346.961 605.926 349.466C623.25 374.304 640.157 400.812 656.437 428.781C672.3 456.124 686.702 483.884 699.852 511.853C686.702 539.822 672.3 567.791 656.646 595.134ZM724.064 568C735.335 595.969 744.936 623.938 752.868 651.072C725.525 657.751 696.721 663.387 666.873 667.77C677.101 651.698 687.328 635.209 696.93 618.303C706.531 601.605 715.506 584.698 724.064 568ZM512.418 790.709C493.006 770.671 473.595 748.338 454.392 723.917C473.177 724.752 492.38 725.378 511.791 725.378C531.411 725.378 550.823 724.96 569.817 723.917C551.031 748.338 531.62 770.671 512.418 790.709ZM357.127 667.77C327.488 663.387 298.893 657.96 271.55 651.281C279.273 624.356 288.874 596.595 299.728 568.835C308.285 585.533 317.261 602.231 327.071 618.929C336.881 635.627 346.899 651.907 357.127 667.77ZM511.374 233.415C530.785 253.453 550.196 275.786 569.399 300.207C550.614 299.372 531.411 298.746 512 298.746C492.38 298.746 472.969 299.163 453.975 300.207C472.76 275.786 492.171 253.453 511.374 233.415ZM356.918 356.354C346.691 372.426 336.463 388.915 326.862 405.821C317.26 422.519 308.285 439.217 299.728 455.915C288.457 427.946 278.855 399.977 270.924 372.843C298.267 366.373 327.071 360.737 356.918 356.354ZM168.023 617.676C94.1346 586.159 46.3367 544.832 46.3367 512.062C46.3367 479.292 94.1346 437.756 168.023 406.448C185.973 398.725 205.593 391.837 225.839 385.367C237.737 426.276 253.391 468.856 272.802 512.479C253.6 555.894 238.154 598.265 226.466 638.966C205.802 632.496 186.182 625.399 168.023 617.676ZM280.316 915.943C251.93 899.662 239.615 837.671 249.217 757.939C251.512 738.319 255.27 717.655 259.861 696.574C300.771 706.593 345.438 714.316 392.401 719.325C420.579 757.939 449.8 793.004 479.23 823.687C411.186 886.93 347.317 921.579 303.902 921.579C294.51 921.37 286.578 919.491 280.316 915.943ZM775.41 756.895C785.22 836.628 773.114 898.619 744.936 915.108C738.674 918.865 730.534 920.535 720.933 920.535C677.727 920.535 613.649 886.095 545.605 823.27C574.826 792.587 604.047 757.73 631.808 719.116C678.979 714.107 723.646 706.384 764.556 696.157C769.357 717.238 773.114 737.484 775.41 756.895ZM855.768 617.676C837.818 625.399 818.198 632.287 797.952 638.757C786.055 597.848 770.4 555.268 750.989 511.645C770.192 468.23 785.637 425.859 797.326 385.158C817.989 391.628 837.609 398.725 855.977 406.448C929.865 437.965 977.663 479.292 977.663 512.062C977.455 544.832 929.657 586.368 855.768 617.676Z" fill="white"/>
<path d="M515.895 560.013L494.163 583.624H476.431V601.357H458.698V619.09H405.5V574.758L466.367 513.146C475.943 534.638 493.809 551.59 515.895 560.013ZM618.292 477.228C618.292 516.4 586.532 548.159 547.361 548.159C508.19 548.159 476.431 516.4 476.431 477.228C476.431 438.057 508.19 406.298 547.361 406.298C586.532 406.298 618.292 438.057 618.292 477.228ZM591.693 450.629C591.693 440.841 583.748 432.897 573.96 432.897C564.172 432.897 556.227 440.841 556.227 450.629C556.227 460.418 564.172 468.362 573.96 468.362C583.748 468.362 591.693 460.418 591.693 450.629Z" fill="white"/>
</svg>
